<?xml version="1.0" encoding="UTF-8" standalone="no"?>
<svg
   xmlns:dc="http://purl.org/dc/elements/1.1/"
   xmlns:cc="http://creativecommons.org/ns#"
   xmlns:rdf="http://www.w3.org/1999/02/22-rdf-syntax-ns#"
   xmlns:svg="http://www.w3.org/2000/svg"
   xmlns="http://www.w3.org/2000/svg"
   id="svg8"
   version="1.1"
   viewBox="0 0 42.640291 8.190198"
   height="30.955078"
   width="161.16016">
  <title
     id="title861">Fork us on GitHub - Bryan Agredo</title>
  <defs
     id="defs2" />
  <metadata
     id="metadata5">
    <rdf:RDF>
      <cc:Work
         rdf:about="">
        <dc:format>image/svg+xml</dc:format>
        <dc:type
           rdf:resource="http://purl.org/dc/dcmitype/StillImage" />
        <dc:title>Fork us on GitHub - Bryan Agredo</dc:title>
      </cc:Work>
    </rdf:RDF>
  </metadata>
  <g
     transform="translate(22.317469,-289.38529)"
     id="layer1">
    <path
       id="rect823"
       transform="matrix(0.26458334,0,0,0.26458334,-18.084136,289.38529)"
       d="M -16,0 V 0.06835937 L 0,15.511719 -16,30.955078 H 145.16016 V 0 Z"
       style="opacity:1;fill:#be51d1;fill-opacity:1;stroke:none;stroke-width:1.58100486;stroke-linejoin:bevel;stroke-miterlimit:4;stroke-dasharray:none;stroke-opacity:1;paint-order:normal" />
    <g
       id="text821"
       style="font-style:normal;font-variant:normal;font-weight:normal;font-stretch:normal;font-size:10.58333397px;line-height:1.25;font-family:'Segoe UI';-inkscape-font-specification:'Segoe UI';text-align:center;letter-spacing:0px;word-spacing:0px;text-anchor:middle;fill:#fbfbfb;fill-opacity:1;stroke:none;stroke-width:0.26458335"
       aria-label="Fork us on GitHub">
      <path
         id="path832"
         style="font-style:normal;font-variant:normal;font-weight:bold;font-stretch:normal;font-size:3.88055563px;font-family:SST;-inkscape-font-specification:'SST Bold';fill:#fbfbfb;fill-opacity:1;stroke-width:0.26458335"
         d="m -15.438303,292.11261 h 1.660878 v 0.45403 h -1.094317 v 0.67522 h 1.001184 v 0.45402 h -1.001184 v 1.18745 h -0.566561 z" />
      <path
         id="path834"
         style="font-style:normal;font-variant:normal;font-weight:bold;font-stretch:normal;font-size:3.88055563px;font-family:SST;-inkscape-font-specification:'SST Bold';fill:#fbfbfb;fill-opacity:1;stroke-width:0.26458335"
         d="m -11.488988,293.85498 q 0,0.25224 -0.07761,0.45403 -0.07373,0.19791 -0.20955,0.33761 -0.135819,0.13582 -0.329847,0.20955 -0.190147,0.0737 -0.426861,0.0737 -0.240594,0 -0.434622,-0.0737 -0.190147,-0.0737 -0.325967,-0.21343 -0.135819,-0.1397 -0.20955,-0.33761 -0.07373,-0.19791 -0.07373,-0.45015 0,-0.24835 0.07373,-0.44626 0.07373,-0.20179 0.20955,-0.33761 0.13582,-0.13582 0.325967,-0.20955 0.194028,-0.0737 0.434622,-0.0737 0.240594,0 0.430742,0.0737 0.194027,0.0737 0.329847,0.20955 0.135819,0.13582 0.20955,0.33761 0.07373,0.19791 0.07373,0.44626 z m -0.551039,0 q 0,-0.14358 -0.03104,-0.26387 -0.03104,-0.12418 -0.09313,-0.20567 -0.05821,-0.0854 -0.151342,-0.13194 -0.09313,-0.0504 -0.217311,-0.0504 -0.240594,0 -0.368653,0.17463 -0.124178,0.17462 -0.124178,0.4773 0,0.30657 0.124178,0.48119 0.124178,0.17463 0.368653,0.17851 0.248356,-0.004 0.368653,-0.17851 0.124178,-0.17462 0.124178,-0.48119 z" />
      <path
         id="path836"
         style="font-style:normal;font-variant:normal;font-weight:bold;font-stretch:normal;font-size:3.88055563px;font-family:SST;-inkscape-font-specification:'SST Bold';fill:#fbfbfb;fill-opacity:1;stroke-width:0.26458335"
         d="m -9.8286565,293.21857 q -0.038806,-0.008 -0.077611,-0.0116 -0.038806,-0.004 -0.081492,-0.004 -0.1008948,0 -0.1901468,0.0349 -0.08925,0.0349 -0.159103,0.11641 -0.06985,0.0815 -0.108656,0.21731 -0.0388,0.13194 -0.0388,0.32209 v 0.98954 h -0.551039 v -2.04893 h 0.539397 v 0.26776 h 0.0078 q 0.147461,-0.31433 0.5355168,-0.31433 0.038806,0 0.077611,0.004 0.038805,0 0.07373,0.004 z" />
      <path
         id="path838"
         style="font-style:normal;font-variant:normal;font-weight:bold;font-stretch:normal;font-size:3.88055563px;font-family:SST;-inkscape-font-specification:'SST Bold';fill:#fbfbfb;fill-opacity:1;stroke-width:0.26458335"
         d="m -7.6032182,292.8344 -0.7567083,0.91581 0.803275,1.13312 h -0.663575 l -0.7179028,-1.07491 h -0.00776 v 1.07491 h -0.5510389 v -2.85221 h 0.5510389 v 1.68804 h 0.00776 l 0.6790972,-0.88476 z" />
      <path
         id="path840"
         style="font-style:normal;font-variant:normal;font-weight:bold;font-stretch:normal;font-size:3.88055563px;font-family:SST;-inkscape-font-specification:'SST Bold';fill:#fbfbfb;fill-opacity:1;stroke-width:0.26458335"
         d="m -4.8983496,294.88333 v -0.27552 h -0.00776 q -0.077611,0.15522 -0.2483556,0.2406 -0.1707444,0.0815 -0.3686528,0.0815 -0.174625,0 -0.3182055,-0.0543 -0.1397,-0.0543 -0.2367139,-0.15134 -0.097014,-0.097 -0.1513417,-0.23283 -0.054328,-0.13582 -0.054328,-0.30657 v -1.35043 h 0.5510389 v 1.14476 q 0,0.12418 0.015522,0.22119 0.019403,0.097 0.062089,0.17075 0.046567,0.0698 0.1202972,0.10865 0.073731,0.0349 0.1862667,0.0349 0.081492,0 0.1591028,-0.031 0.077611,-0.031 0.1397,-0.0931 0.062089,-0.066 0.1008944,-0.17462 0.038806,-0.11254 0.038806,-0.27164 v -1.10984 h 0.5510389 v 2.04893 z" />
      <path
         id="path842"
         style="font-style:normal;font-variant:normal;font-weight:bold;font-stretch:normal;font-size:3.88055563px;font-family:SST;-inkscape-font-specification:'SST Bold';fill:#fbfbfb;fill-opacity:1;stroke-width:0.26458335"
         d="m -2.5552221,293.31171 q -0.1591027,-0.0621 -0.2988027,-0.0854 -0.1358195,-0.0233 -0.2599973,-0.0233 -0.1202972,0 -0.1940278,0.0388 -0.07373,0.0349 -0.077611,0.12805 0,0.0893 0.077611,0.14359 0.081492,0.0543 0.3026834,0.12417 0.1629833,0.0505 0.2871611,0.11254 0.1280583,0.0582 0.2173111,0.1397 0.089253,0.0776 0.1319389,0.1785 0.046567,0.1009 0.046567,0.23672 0,0.17462 -0.077611,0.29492 -0.073731,0.1203 -0.1940278,0.19403 -0.1202972,0.0698 -0.2755195,0.10089 -0.1513416,0.0349 -0.3026833,0.0349 -0.1901472,0 -0.3996972,-0.0388 -0.2056695,-0.0388 -0.3686528,-0.10477 l 0.1086555,-0.4191 q 0.1707445,0.0737 0.34925,0.11253 0.1823862,0.0349 0.3065639,0.0349 0.1591028,0 0.244475,-0.0388 0.085372,-0.0427 0.085372,-0.14358 0,-0.0892 -0.097014,-0.14746 -0.093133,-0.0621 -0.3337278,-0.13582 -0.3298472,-0.10865 -0.4811889,-0.25611 -0.1474611,-0.14747 -0.1474611,-0.36866 0.00388,-0.16686 0.06985,-0.28716 0.065969,-0.1203 0.1785055,-0.19791 0.1164167,-0.0776 0.2599973,-0.11253 0.1435805,-0.0388 0.2910416,-0.0388 0.1629834,0 0.3414889,0.031 0.1785056,0.0272 0.3298473,0.0854 z" />
      <path
         id="path844"
         style="font-style:normal;font-variant:normal;font-weight:bold;font-stretch:normal;font-size:3.88055563px;font-family:SST;-inkscape-font-specification:'SST Bold';fill:#fbfbfb;fill-opacity:1;stroke-width:0.26458335"
         d="m 1.1000799,293.85498 q 0,0.25224 -0.077611,0.45403 -0.0737305,0.19791 -0.20955,0.33761 -0.13581945,0.13582 -0.32984723,0.20955 -0.19014722,0.0737 -0.42686112,0.0737 -0.24059445,0 -0.43462223,-0.0737 -0.19014722,-0.0737 -0.32596667,-0.21343 -0.13581945,-0.1397 -0.20955001,-0.33761 -0.0737305,-0.19791 -0.0737305,-0.45015 0,-0.24835 0.0737305,-0.44626 0.0737306,-0.20179 0.20955001,-0.33761 0.13581945,-0.13582 0.32596667,-0.20955 0.19402778,-0.0737 0.43462223,-0.0737 0.24059445,0 0.43074168,0.0737 0.19402778,0.0737 0.32984723,0.20955 0.13581944,0.13582 0.20955004,0.33761 0.073731,0.19791 0.073731,0.44626 z m -0.55103888,0 q 0,-0.14358 -0.0310445,-0.26387 -0.0310444,-0.12418 -0.0931333,-0.20567 -0.0582083,-0.0854 -0.15134167,-0.13194 -0.0931333,-0.0504 -0.21731112,-0.0504 -0.24059445,0 -0.36865278,0.17463 -0.12417778,0.17462 -0.12417778,0.4773 0,0.30657 0.12417778,0.48119 0.12417778,0.17463 0.36865278,0.17851 0.24835556,-0.004 0.36865279,-0.17851 0.12417778,-0.17462 0.12417778,-0.48119 z" />
      <path
         id="path846"
         style="font-style:normal;font-variant:normal;font-weight:bold;font-stretch:normal;font-size:3.88055563px;font-family:SST;-inkscape-font-specification:'SST Bold';fill:#fbfbfb;fill-opacity:1;stroke-width:0.26458335"
         d="m 2.0929554,292.8344 v 0.27552 h 0.00776 q 0.077611,-0.15522 0.2483556,-0.23672 0.174625,-0.0854 0.3725333,-0.0854 0.174625,0 0.3143251,0.0543 0.1397,0.0505 0.2367138,0.15134 0.1008945,0.097 0.1513417,0.23671 0.054328,0.13582 0.054328,0.30269 v 1.35043 H 2.9272749 v -1.14476 q 0,-0.12418 -0.019403,-0.22507 -0.015522,-0.10478 -0.058208,-0.17075 -0.042686,-0.066 -0.1164167,-0.10089 -0.07373,-0.0388 -0.1862667,-0.0388 -0.081492,0 -0.1591027,0.031 -0.073731,0.0272 -0.1397,0.097 -0.06597,0.066 -0.104775,0.1785 -0.038806,0.10866 -0.038806,0.26388 v 1.10984 H 1.5535582 v -2.04893 z" />
      <path
         id="path848"
         style="font-style:normal;font-variant:normal;font-weight:bold;font-stretch:normal;font-size:3.88055563px;font-family:SST;-inkscape-font-specification:'SST Bold';fill:#fbfbfb;fill-opacity:1;stroke-width:0.26458335"
         d="m 7.0855937,292.68306 q -0.1164167,-0.0699 -0.2910417,-0.11642 -0.174625,-0.0466 -0.3414889,-0.0466 -0.20955,0 -0.384175,0.0699 -0.174625,0.066 -0.2988028,0.19403 -0.1202972,0.12806 -0.1901472,0.31433 -0.065969,0.18238 -0.065969,0.4191 0,0.1979 0.058208,0.37253 0.062089,0.17462 0.174625,0.30656 0.1164167,0.12806 0.2832806,0.20567 0.1707444,0.0737 0.3880555,0.0737 0.2134306,0 0.3376084,-0.0543 v -0.69074 H 6.2861992 v -0.45403 H 7.318427 v 1.45909 q -0.2211916,0.10866 -0.4617861,0.15134 -0.2367139,0.0427 -0.4811889,0.0427 -0.3259667,0 -0.5898444,-0.10478 -0.2638778,-0.10477 -0.4501445,-0.29104 -0.1862667,-0.19015 -0.2871611,-0.45014 -0.1008945,-0.26388 -0.1008945,-0.57821 0,-0.31432 0.097014,-0.5782 0.1008945,-0.26388 0.2910417,-0.45402 0.1901472,-0.19403 0.4695472,-0.29881 0.2832806,-0.10865 0.6441723,-0.10865 0.2056694,0 0.4113389,0.0427 0.2056694,0.0388 0.3802944,0.11642 z" />
      <path
         id="path850"
         style="font-style:normal;font-variant:normal;font-weight:bold;font-stretch:normal;font-size:3.88055563px;font-family:SST;-inkscape-font-specification:'SST Bold';fill:#fbfbfb;fill-opacity:1;stroke-width:0.26458335"
         d="m 8.4180794,292.8344 v 2.04893 H 7.8670405 v -2.04893 z m 0,-0.79164 v 0.47731 H 7.8670405 v -0.47731 z" />
      <path
         id="path852"
         style="font-style:normal;font-variant:normal;font-weight:bold;font-stretch:normal;font-size:3.88055563px;font-family:SST;-inkscape-font-specification:'SST Bold';fill:#fbfbfb;fill-opacity:1;stroke-width:0.26458335"
         d="m 8.725613,292.8344 h 0.314325 v -0.54328 h 0.5510389 v 0.54328 h 0.4268611 v 0.41522 H 9.5909769 v 0.91581 q 0,0.10477 0.00776,0.17074 0.011642,0.066 0.034925,0.097 0.027164,0.031 0.06985,0.0427 0.046567,0.0116 0.1202973,0.0116 0.050447,0 0.089253,-0.004 0.042686,-0.004 0.093133,-0.0116 v 0.41134 q -0.077611,0.008 -0.1707441,0.0116 -0.093133,0.008 -0.1862666,0.008 -0.1940278,0 -0.3143251,-0.0388 -0.1164166,-0.0388 -0.1823861,-0.11254 -0.065969,-0.0737 -0.089253,-0.18238 -0.023283,-0.11254 -0.023283,-0.26 v -1.05939 H 8.725613 Z" />
      <path
         id="path854"
         style="font-style:normal;font-variant:normal;font-weight:bold;font-stretch:normal;font-size:3.88055563px;font-family:SST;-inkscape-font-specification:'SST Bold';fill:#fbfbfb;fill-opacity:1;stroke-width:0.26458335"
         d="m 10.414383,292.11261 h 0.566561 v 1.12925 h 1.063273 v -1.12925 h 0.566561 v 2.77072 h -0.566561 v -1.18745 h -1.063273 v 1.18745 h -0.566561 z" />
      <path
         id="path856"
         style="font-style:normal;font-variant:normal;font-weight:bold;font-stretch:normal;font-size:3.88055563px;font-family:SST;-inkscape-font-specification:'SST Bold';fill:#fbfbfb;fill-opacity:1;stroke-width:0.26458335"
         d="m 14.549903,294.88333 v -0.27552 h -0.0078 q -0.07761,0.15522 -0.248356,0.2406 -0.170744,0.0815 -0.368652,0.0815 -0.174625,0 -0.318206,-0.0543 -0.1397,-0.0543 -0.236714,-0.15134 -0.09701,-0.097 -0.151342,-0.23283 -0.05433,-0.13582 -0.05433,-0.30657 v -1.35043 h 0.551039 v 1.14476 q 0,0.12418 0.01552,0.22119 0.0194,0.097 0.06209,0.17075 0.04657,0.0698 0.120297,0.10865 0.07373,0.0349 0.186267,0.0349 0.08149,0 0.159102,-0.031 0.07761,-0.031 0.1397,-0.0931 0.06209,-0.066 0.100895,-0.17462 0.0388,-0.11254 0.0388,-0.27164 V 292.8344 H 15.0893 v 2.04893 z" />
      <path
         id="path858"
         style="font-style:normal;font-variant:normal;font-weight:bold;font-stretch:normal;font-size:3.88055563px;font-family:SST;-inkscape-font-specification:'SST Bold';fill:#fbfbfb;fill-opacity:1;stroke-width:0.26458335"
         d="m 16.175128,294.88333 h -0.539397 v -2.85221 h 0.551038 v 1.06716 h 0.0078 q 0.120297,-0.15911 0.2794,-0.23284 0.159102,-0.0776 0.337608,-0.0776 0.20955,0 0.372533,0.0854 0.162984,0.0815 0.271639,0.22896 0.108656,0.14358 0.162984,0.3376 0.05821,0.19403 0.05821,0.4191 0,0.22508 -0.05821,0.42299 -0.05821,0.19402 -0.170745,0.3376 -0.108655,0.14358 -0.275519,0.22896 -0.162984,0.0815 -0.372534,0.0815 -0.182386,0 -0.345369,-0.0621 -0.159103,-0.0621 -0.271639,-0.20955 h -0.0078 z m 0.950736,-1.02447 q 0,-0.1397 -0.02716,-0.25999 -0.02716,-0.1203 -0.08537,-0.20567 -0.05433,-0.0892 -0.143581,-0.1397 -0.08537,-0.0504 -0.205669,-0.0504 -0.116417,0 -0.213431,0.0504 -0.09701,0.0466 -0.162983,0.13582 -0.06597,0.0854 -0.100895,0.20567 -0.03493,0.12029 -0.03493,0.26387 0,0.14359 0.03493,0.26388 0.03492,0.1203 0.09701,0.20955 0.06597,0.0854 0.162984,0.13582 0.09701,0.0504 0.217311,0.0504 0.120297,0 0.205669,-0.0504 0.08925,-0.0505 0.143581,-0.1397 0.05821,-0.0892 0.08537,-0.20955 0.02716,-0.1203 0.02716,-0.26 z" />
    </g>
  </g>
</svg>
